<svg xmlns="http://www.w3.org/2000/svg" viewBox="0 0 414.57 453.75"><defs><style>.cls-1{fill:#cbbba0;}.cls-2{fill:#ffed00;}.cls-3{fill:#1d1d1b;}.cls-4{fill:#c9b504;}.cls-5{fill:#fff;}</style></defs><g id="Calque_2" data-name="Calque 2"><g id="Calque_1-2" data-name="Calque 1"><circle class="cls-1" cx="206.31" cy="268.96" r="184.79"/><path class="cls-2" d="M13,149.47c27.09,74.13,358.08,67.31,385.43-5.31,2-5.38,10.56-32.79-.92-41.57-6.54-5-13.82.44-24.15-2.65-20.25-6.06-20.56-35.44-33.59-53.87-11.17-15.8-36.54-30.4-97.37-28.38L243.34,0,176.47.88l.93,16.81c-7.65-.92-56.77-6.06-94.73,27.42a106.6,106.6,0,0,0-32.1,51.71c-7.41-.89-23.16-1.73-32.91,7.54C3.72,117.62,10.74,143.25,13,149.47Z"/><circle class="cls-3" cx="164.43" cy="235.42" r="12.08"/><circle class="cls-3" cx="246.93" cy="235.42" r="12.08"/><path class="cls-3" d="M175.4,280.52a33.27,33.27,0,0,0,62.07-3.93c1-3.07-3.84-4.39-4.82-1.33A28.74,28.74,0,0,1,215,293.51a28.36,28.36,0,0,1-25.65-3.66A29.18,29.18,0,0,1,179.72,278a2.52,2.52,0,0,0-3.42-.9,2.56,2.56,0,0,0-.9,3.42Z"/><path class="cls-1" d="M414.44,229.53c1.73,19.12-13.84,36.7-23.39,35.2-15.74-2.46-26.73-58.57-13.82-66.11C385.9,193.56,412.35,206.31,414.44,229.53Z"/><path class="cls-1" d="M.13,224.29C-1.59,243.41,14,261,23.53,259.49c15.74-2.46,26.73-58.57,13.82-66.11C28.68,188.32,2.23,201.07.13,224.29Z"/><path class="cls-4" d="M176.47.88l11.25,136,43.66-2.3q6-67.28,12-134.55Z"/><circle class="cls-5" cx="251.74" cy="230.23" r="2.62"/><circle class="cls-5" cx="170.8" cy="230.74" r="2.49"/></g></g></svg>